<?xml version="1.0" encoding="utf-8"?>
<!-- Generator: Adobe Illustrator 23.0.3, SVG Export Plug-In . SVG Version: 6.00 Build 0)  -->
<svg version="1.1" id="Layer_1" xmlns="http://www.w3.org/2000/svg" xmlns:xlink="http://www.w3.org/1999/xlink" x="0px" y="0px"
	 viewBox="0 0 194.59 35.52" style="enable-background:new 0 0 194.59 35.52;" xml:space="preserve">
<style type="text/css">
	.st0{fill:#FFFFFF;}
</style>
<g>
	<path class="st0" d="M96.48,26.17c-0.72,0.39-1.65,0.59-2.79,0.59c-0.86,0-1.66-0.16-2.39-0.47c-0.74-0.31-1.37-0.74-1.9-1.28
		c-0.53-0.54-0.94-1.17-1.25-1.89c-0.3-0.72-0.45-1.49-0.45-2.31v-0.04c0-0.82,0.15-1.59,0.45-2.32c0.3-0.73,0.72-1.37,1.25-1.91
		c0.53-0.54,1.16-0.97,1.9-1.29c0.74-0.31,1.55-0.47,2.44-0.47c1.09,0,1.99,0.17,2.71,0.52c0.72,0.34,1.34,0.82,1.89,1.42l-2,2.15
		c-0.37-0.39-0.75-0.69-1.15-0.92c-0.39-0.23-0.88-0.34-1.47-0.34c-0.41,0-0.79,0.08-1.13,0.25c-0.34,0.17-0.63,0.39-0.88,0.68
		c-0.25,0.29-0.44,0.62-0.58,1c-0.14,0.38-0.2,0.78-0.2,1.21v0.04c0,0.44,0.07,0.86,0.2,1.24c0.14,0.39,0.33,0.72,0.59,1.01
		c0.26,0.29,0.56,0.51,0.92,0.68s0.76,0.25,1.2,0.25c0.54,0,1.02-0.11,1.43-0.33c0.41-0.22,0.81-0.52,1.21-0.89l1.91,1.93
		C97.83,25.27,97.2,25.78,96.48,26.17z"/>
	<path class="st0" d="M111.94,23.1c-0.31,0.72-0.75,1.36-1.31,1.9c-0.56,0.54-1.22,0.97-1.97,1.29c-0.76,0.31-1.59,0.47-2.49,0.47
		c-0.89,0-1.71-0.15-2.47-0.46c-0.76-0.31-1.41-0.73-1.96-1.27c-0.55-0.54-0.98-1.17-1.3-1.89c-0.31-0.72-0.47-1.5-0.47-2.33v-0.04
		c0-0.83,0.16-1.61,0.47-2.33c0.31-0.72,0.75-1.36,1.31-1.9c0.56-0.54,1.22-0.97,1.97-1.29c0.76-0.31,1.59-0.47,2.49-0.47
		c0.89,0,1.71,0.15,2.47,0.46c0.76,0.31,1.41,0.73,1.96,1.27c0.55,0.54,0.98,1.17,1.3,1.89s0.47,1.5,0.47,2.33v0.04
		C112.41,21.6,112.25,22.38,111.94,23.1z M109.19,20.77c0-0.43-0.07-0.83-0.21-1.21c-0.14-0.38-0.35-0.72-0.62-1.01
		c-0.27-0.29-0.59-0.53-0.97-0.7c-0.37-0.17-0.78-0.26-1.22-0.26c-0.47,0-0.89,0.08-1.26,0.25c-0.36,0.17-0.68,0.39-0.93,0.68
		c-0.26,0.29-0.46,0.62-0.59,1c-0.14,0.38-0.2,0.78-0.2,1.21v0.04c0,0.43,0.07,0.83,0.21,1.21c0.14,0.38,0.35,0.72,0.62,1.01
		s0.59,0.53,0.95,0.7c0.36,0.17,0.78,0.26,1.23,0.26c0.47,0,0.89-0.08,1.26-0.25c0.37-0.16,0.68-0.39,0.93-0.68
		c0.26-0.29,0.45-0.62,0.59-1c0.14-0.38,0.2-0.78,0.2-1.21V20.77z"/>
	<path class="st0" d="M114.92,26.5V10.84h3.26V26.5H114.92z"/>
	<path class="st0" d="M132.67,23.1c-0.31,0.72-0.75,1.36-1.31,1.9c-0.56,0.54-1.22,0.97-1.97,1.29c-0.76,0.31-1.59,0.47-2.49,0.47
		c-0.89,0-1.71-0.15-2.47-0.46c-0.76-0.31-1.41-0.73-1.96-1.27c-0.55-0.54-0.98-1.17-1.3-1.89c-0.31-0.72-0.47-1.5-0.47-2.33v-0.04
		c0-0.83,0.16-1.61,0.47-2.33c0.31-0.72,0.75-1.36,1.31-1.9c0.56-0.54,1.22-0.97,1.97-1.29c0.76-0.31,1.59-0.47,2.49-0.47
		c0.89,0,1.71,0.15,2.47,0.46c0.76,0.31,1.41,0.73,1.96,1.27c0.55,0.54,0.98,1.17,1.3,1.89s0.47,1.5,0.47,2.33v0.04
		C133.14,21.6,132.98,22.38,132.67,23.1z M129.92,20.77c0-0.43-0.07-0.83-0.21-1.21c-0.14-0.38-0.35-0.72-0.62-1.01
		c-0.27-0.29-0.59-0.53-0.97-0.7c-0.37-0.17-0.78-0.26-1.22-0.26c-0.47,0-0.89,0.08-1.26,0.25c-0.36,0.17-0.68,0.39-0.93,0.68
		c-0.26,0.29-0.46,0.62-0.59,1c-0.14,0.38-0.2,0.78-0.2,1.21v0.04c0,0.43,0.07,0.83,0.21,1.21c0.14,0.38,0.35,0.72,0.62,1.01
		s0.59,0.53,0.95,0.7c0.36,0.17,0.78,0.26,1.23,0.26c0.47,0,0.89-0.08,1.26-0.25c0.37-0.16,0.68-0.39,0.93-0.68
		c0.26-0.29,0.45-0.62,0.59-1c0.14-0.38,0.2-0.78,0.2-1.21V20.77z"/>
	<path class="st0" d="M142.26,18.2c-1.09,0-1.94,0.33-2.56,0.99c-0.62,0.66-0.93,1.68-0.93,3.07v4.25h-3.26V15h3.26v2.32
		c0.33-0.79,0.78-1.42,1.35-1.89c0.57-0.47,1.34-0.69,2.32-0.64v3.41H142.26z"/>
	<path class="st0" d="M152.69,26.17c-0.72,0.39-1.65,0.59-2.79,0.59c-0.86,0-1.66-0.16-2.39-0.47s-1.37-0.74-1.9-1.28
		c-0.53-0.54-0.94-1.17-1.25-1.89c-0.3-0.72-0.45-1.49-0.45-2.31v-0.04c0-0.82,0.15-1.59,0.45-2.32c0.3-0.73,0.72-1.37,1.25-1.91
		c0.53-0.54,1.16-0.97,1.9-1.29c0.74-0.31,1.55-0.47,2.44-0.47c1.09,0,1.99,0.17,2.71,0.52c0.72,0.34,1.34,0.82,1.89,1.42l-2,2.15
		c-0.37-0.39-0.75-0.69-1.15-0.92c-0.39-0.23-0.88-0.34-1.47-0.34c-0.41,0-0.79,0.08-1.13,0.25c-0.34,0.17-0.63,0.39-0.88,0.68
		c-0.25,0.29-0.44,0.62-0.58,1c-0.14,0.38-0.2,0.78-0.2,1.21v0.04c0,0.44,0.07,0.86,0.2,1.24c0.14,0.39,0.33,0.72,0.59,1.01
		c0.26,0.29,0.56,0.51,0.92,0.68c0.36,0.16,0.76,0.25,1.2,0.25c0.54,0,1.02-0.11,1.43-0.33c0.41-0.22,0.81-0.52,1.21-0.89l1.91,1.93
		C154.05,25.27,153.41,25.78,152.69,26.17z"/>
	<path class="st0" d="M168.15,23.1c-0.31,0.72-0.75,1.36-1.31,1.9c-0.56,0.54-1.22,0.97-1.97,1.29c-0.76,0.31-1.59,0.47-2.49,0.47
		c-0.89,0-1.71-0.15-2.47-0.46c-0.76-0.31-1.41-0.73-1.96-1.27c-0.55-0.54-0.98-1.17-1.3-1.89c-0.31-0.72-0.47-1.5-0.47-2.33v-0.04
		c0-0.83,0.16-1.61,0.47-2.33c0.31-0.72,0.75-1.36,1.31-1.9c0.56-0.54,1.22-0.97,1.97-1.29c0.76-0.31,1.59-0.47,2.49-0.47
		c0.89,0,1.71,0.15,2.47,0.46c0.76,0.31,1.41,0.73,1.96,1.27c0.55,0.54,0.98,1.17,1.3,1.89s0.47,1.5,0.47,2.33v0.04
		C168.62,21.6,168.46,22.38,168.15,23.1z M165.4,20.77c0-0.43-0.07-0.83-0.21-1.21c-0.14-0.38-0.35-0.72-0.62-1.01
		c-0.27-0.29-0.59-0.53-0.97-0.7c-0.37-0.17-0.78-0.26-1.22-0.26c-0.47,0-0.89,0.08-1.26,0.25c-0.36,0.17-0.68,0.39-0.93,0.68
		c-0.26,0.29-0.46,0.62-0.59,1c-0.14,0.38-0.2,0.78-0.2,1.21v0.04c0,0.43,0.07,0.83,0.21,1.21c0.14,0.38,0.35,0.72,0.62,1.01
		s0.59,0.53,0.95,0.7c0.36,0.17,0.78,0.26,1.23,0.26c0.47,0,0.89-0.08,1.26-0.25c0.37-0.16,0.68-0.39,0.93-0.68
		c0.26-0.29,0.45-0.62,0.59-1c0.14-0.38,0.2-0.78,0.2-1.21V20.77z"/>
	<path class="st0" d="M177.44,26.59h-2.96L169.95,15h3.46l2.58,7.71l2.6-7.71h3.39L177.44,26.59z"/>
	<path class="st0" d="M194.58,21.48c-0.01,0.11-0.02,0.25-0.03,0.41h-8.01c0.16,0.74,0.48,1.31,0.98,1.68
		c0.49,0.38,1.11,0.57,1.84,0.57c0.54,0,1.03-0.09,1.46-0.28c0.43-0.19,0.87-0.49,1.33-0.9l1.87,1.65c-0.54,0.67-1.2,1.2-1.97,1.58
		c-0.77,0.38-1.68,0.57-2.73,0.57c-0.86,0-1.66-0.14-2.39-0.43c-0.74-0.29-1.37-0.69-1.91-1.22c-0.54-0.53-0.95-1.15-1.26-1.88
		c-0.3-0.72-0.45-1.53-0.45-2.42v-0.04c0-0.82,0.14-1.59,0.42-2.32c0.28-0.73,0.67-1.37,1.17-1.91c0.5-0.54,1.1-0.97,1.79-1.29
		c0.69-0.31,1.46-0.47,2.31-0.47c0.96,0,1.79,0.17,2.49,0.52c0.7,0.34,1.28,0.81,1.75,1.39c0.47,0.58,0.81,1.24,1.03,2
		c0.22,0.75,0.33,1.53,0.33,2.35v0.04C194.59,21.23,194.59,21.37,194.58,21.48z M190.64,18.08c-0.41-0.45-0.97-0.68-1.65-0.68
		c-0.69,0-1.24,0.22-1.66,0.67c-0.42,0.44-0.7,1.04-0.83,1.78h4.92C191.32,19.12,191.06,18.53,190.64,18.08z"/>
</g>
<g>
	<g>
		<path class="st0" d="M7.66,22.68c-0.54,0.51-3.9,0.85-4.75,1.79s0.38,2.03,4.44,4.18s9.06,2.73,8.15,2.93
			c-0.92,0.2-5.11-0.42-9.12-2.12s-7.51-3.02-6.03-4.89C1.82,22.69,8.2,22.16,7.66,22.68z"/>
		<path class="st0" d="M64.62,22.7c0.54,0.55,3.89,0.89,4.74,1.91c0.85,1.02-0.39,2.2-4.48,4.56c-4.08,2.36-9.09,3.02-8.17,3.23
			c0.92,0.21,5.12-0.49,9.14-2.36s7.53-3.32,6.07-5.34S64.08,22.15,64.62,22.7z"/>
		<path class="st0" d="M20.87,33.4c1.05-0.08,8.12,0.89,14,0.99s13.84-0.44,15.28-0.43c1.44,0.01-9.03,1.56-15.28,1.55
			C28.61,35.51,19.83,33.48,20.87,33.4z"/>
	</g>
	<path class="st0" d="M26.11,8.71c-2.93,2.22-5.47,5.06-6.43,5.53c-0.96,0.48-1.54-0.17-3-0.6c-1.47-0.43-2.41,0.76-2.7,1.3
		s-3.52,6.54-4.16,7.68c-0.64,1.13-0.15,1.84,0.76,2.34s7.54,4.82,17.8,6.13c10.25,1.32,12.47,0,12.47,0s0.09-3.58-0.47-3.99
		s-10.08-1.6-14.7-3.82c0.21,0.1,4.15-1.78,15.12-1.18c10.96,0.6,14.89,1.42,14.89,1.42c-1.71,1.04-4.87,1.6-5.32,2.02
		c-0.45,0.42-0.39,2.98-0.19,3.29c0.21,0.31,1.15,0.79,1.66,0.87c0.51,0.09,3.94-0.52,6.23-1.52c2.29-1,4.51-2.65,4.81-3.78
		c0.3-1.13-0.26-4.8-0.98-5.67c-0.71-0.87-3.27-0.81-4.51-3.42c-1.24-2.61-1.15-4.14-2.52-4.36c-1.37-0.22-6.16,3.6-8.56-0.38
		c-2.4-3.98-3.9-7.32-4.77-9.43s-2.46-0.83-3.62-0.17S29.04,6.49,26.11,8.71z"/>
</g>
</svg>
