<svg xmlns="http://www.w3.org/2000/svg" width="27" height="24" viewBox="0 0 27 24">
  <path fill="#FFF" fill-rule="evenodd" d="M26.470608,5.90836364 C26.354688,8.45890909 24.550752,11.9552727 21.067632,16.3909091 C17.45976,21.024 14.414928,23.34 11.915472,23.34 C10.359936,23.34 9.06936,21.9283636 7.99296,19.1061818 L5.875488,11.3454545 C5.081712,8.52654545 4.232736,7.11490909 3.32304,7.11490909 C3.125424,7.11490909 2.433216,7.52727273 1.246416,8.34981818 L0,6.76036364 C1.30824,5.62145455 2.595504,4.48690909 3.865104,3.348 C5.60832,1.85563636 6.917664,1.07345455 7.78872,0.992727273 C9.849888,0.796363636 11.118384,2.19272727 11.594208,5.17963636 C12.107568,8.40109091 12.465264,10.404 12.666192,11.1872727 C13.261248,13.86 13.914816,15.1952727 14.626896,15.1952727 C15.181104,15.1952727 16.01352,14.3269091 17.127456,12.5934545 C18.235872,10.86 18.827616,9.54218182 18.907104,8.63563636 C19.06608,7.14 18.471024,6.38727273 17.125248,6.38727273 C16.491552,6.38727273 15.83688,6.51927273 15.16344,6.81381818 C16.472784,2.59418182 18.954576,0.533454545 22.628688,0.664363636 C25.35888,0.729818182 26.634,2.47963636 26.48496,5.89745455 L26.470608,5.90836364 L26.470608,5.90836364 Z"/>
</svg>
