<svg xmlns="http://www.w3.org/2000/svg" width="89" height="96" viewBox="0 0 89 96">
  <path d="M13.2 0L4 0C1.790861-2.22044605e-16 0 1.790861 0 4 0 6.209139 1.790861 8 4 8L13.2 8 26.35 44.17C20.2580679 45.1918059 15.9370259 50.671301 16.3637048 56.833579 16.7903838 62.9958569 21.8253761 67.827536 28 68L76 68C78.209139 68 80 66.209139 80 64 80 61.790861 78.209139 60 76 60L28 60C25.790861 60 24 58.209139 24 56 24 53.790861 25.790861 52 28 52L63.21 52C70.1556921 51.9784053 76.3683623 47.6748783 78.83 41.18L87.75 17.4C88.2090605 16.1713589 88.0366128 14.7957248 87.2884815 13.7184156 86.5403501 12.6411065 85.3116 11.9990158 84 12L24 12C23.7313791 12.0008373 23.4634675 12.0276285 23.2 12.08L20.72 5.27C19.5714651 2.10636243 16.5656701-.0000923106552 13.2 0zM78.2 20L71.34 38.37C70.0613569 41.7523027 66.825916 43.9928356 63.21 44L34.8 44 26.07 20 78.2 20zM20 84C20 90.627417 25.372583 96 32 96 38.627417 96 44 90.627417 44 84 44 77.372583 38.627417 72 32 72 25.372583 72 20 77.372583 20 84zM36 84C36 86.209139 34.209139 88 32 88 29.790861 88 28 86.209139 28 84 28 81.790861 29.790861 80 32 80 34.209139 80 36 81.790861 36 84zM68 72C61.372583 72 56 77.372583 56 84 56 90.627417 61.372583 96 68 96 74.627417 96 80 90.627417 80 84 80 77.372583 74.627417 72 68 72zM68 88C65.790861 88 64 86.209139 64 84 64 81.790861 65.790861 80 68 80 70.209139 80 72 81.790861 72 84 72 86.209139 70.209139 88 68 88z"/>
</svg>
