<?xml version="1.0" encoding="utf-8"?>
<!-- Generator: Adobe Illustrator 23.0.3, SVG Export Plug-In . SVG Version: 6.00 Build 0)  -->
<svg version="1.1" id="Layer_1" xmlns="http://www.w3.org/2000/svg" xmlns:xlink="http://www.w3.org/1999/xlink" x="0px" y="0px"
	 viewBox="0 0 194.64 35.58" style="enable-background:new 0 0 194.64 35.58;" xml:space="preserve">
<style type="text/css">
	.st0{fill:url(#SVGID_1_);}
	.st1{fill:url(#SVGID_2_);}
	.st2{fill:url(#SVGID_3_);}
	.st3{fill:url(#SVGID_4_);}
	.st4{fill:#1A1A1A;}
	.st5{fill:#231D1D;}
	.st6{fill:url(#SVGID_5_);}
	.st7{fill:url(#SVGID_6_);}
	.st8{fill:url(#SVGID_7_);}
	.st9{fill:url(#SVGID_8_);}
	.st10{fill:url(#SVGID_9_);}
	.st11{fill:url(#SVGID_10_);}
	.st12{fill:#231F20;}
</style>
<g>
	<g>
		<g>
			<linearGradient id="SVGID_1_" gradientUnits="userSpaceOnUse" x1="0" y1="27.1071" x2="15.6261" y2="27.1071">
				<stop  offset="7.932079e-03" style="stop-color:#00B8CA"/>
				<stop  offset="0.6497" style="stop-color:#62C7D2"/>
				<stop  offset="1" style="stop-color:#66C8D2"/>
			</linearGradient>
			<path class="st0" d="M7.67,22.73c-0.54,0.51-3.9,0.85-4.76,1.8s0.38,2.03,4.45,4.18s9.07,2.73,8.16,2.93
				c-0.92,0.2-5.12-0.42-9.13-2.12s-7.52-3.02-6.04-4.9S8.21,22.21,7.67,22.73z"/>
			<linearGradient id="SVGID_2_" gradientUnits="userSpaceOnUse" x1="56.679" y1="27.5175" x2="72.3561" y2="27.5175">
				<stop  offset="7.932079e-03" style="stop-color:#00B8CA"/>
				<stop  offset="0.6497" style="stop-color:#62C7D2"/>
				<stop  offset="1" style="stop-color:#66C8D2"/>
			</linearGradient>
			<path class="st1" d="M64.7,22.75c0.54,0.55,3.9,0.89,4.75,1.91c0.85,1.02-0.39,2.2-4.48,4.56c-4.09,2.36-9.1,3.02-8.18,3.23
				c0.92,0.21,5.12-0.49,9.15-2.36s7.54-3.33,6.07-5.35S64.16,22.2,64.7,22.75z"/>
			<linearGradient id="SVGID_3_" gradientUnits="userSpaceOnUse" x1="20.8126" y1="34.5224" x2="50.3508" y2="34.5224">
				<stop  offset="7.932079e-03" style="stop-color:#00B8CA"/>
				<stop  offset="0.6497" style="stop-color:#62C7D2"/>
				<stop  offset="1" style="stop-color:#66C8D2"/>
			</linearGradient>
			<path class="st2" d="M20.9,33.47c1.05-0.08,8.13,0.89,14.01,0.99c5.89,0.11,13.86-0.44,15.3-0.43s-9.04,1.56-15.3,1.55
				C28.65,35.58,19.85,33.55,20.9,33.47z"/>
		</g>
		<g>
			<linearGradient id="SVGID_4_" gradientUnits="userSpaceOnUse" x1="10.6449" y1="27.5313" x2="40.7777" y2="27.5313">
				<stop  offset="7.932079e-03" style="stop-color:#00B8CA"/>
				<stop  offset="0.6497" style="stop-color:#62C7D2"/>
				<stop  offset="1" style="stop-color:#66C8D2"/>
			</linearGradient>
			<path class="st3" d="M10.64,25.11c1.38,0.81,7.87,4.78,17.65,6.04c10.27,1.32,12.48,0,12.48,0s0.09-3.58-0.47-4
				c-0.56-0.41-10.09-1.61-14.71-3.82C20.58,24.17,12.64,26.05,10.64,25.11z"/>
			<path class="st4" d="M10.47,25.01c-0.17-0.12-0.36-0.25-0.56-0.39C10.07,24.76,10.26,24.89,10.47,25.01z"/>
			<path class="st5" d="M25.58,23.33"/>
			<path class="st4" d="M10.64,25.11c-0.07-0.04-0.13-0.08-0.17-0.1C10.52,25.04,10.58,25.08,10.64,25.11z"/>
			<linearGradient id="SVGID_5_" gradientUnits="userSpaceOnUse" x1="9.4206" y1="19.4765" x2="25.5837" y2="19.4765">
				<stop  offset="0" style="stop-color:#00ADEE"/>
				<stop  offset="1" style="stop-color:#9A54A0"/>
			</linearGradient>
			<path class="st6" d="M18.9,14.45c-0.63-0.01-1.23-0.45-2.32-0.77c-1.47-0.43-2.41,0.76-2.71,1.3c-0.3,0.55-3.52,6.55-4.17,7.69
				c-0.49,0.86-0.32,1.48,0.19,1.95c0.2,0.14,0.39,0.27,0.56,0.39c0.04,0.02,0.1,0.06,0.17,0.1c2,0.95,9.94-0.94,14.94-1.78
				C16.77,19.98,21.22,15.22,18.9,14.45z"/>
			<linearGradient id="SVGID_6_" gradientUnits="userSpaceOnUse" x1="18.9172" y1="8.9242" x2="60.147" y2="8.9242">
				<stop  offset="0" style="stop-color:#ED3542"/>
				<stop  offset="0.9939" style="stop-color:#F2724A"/>
			</linearGradient>
			<path class="st7" d="M31.18,13.56c6.52,0,21.06,1.21,28.97,4.29c-0.97-0.42-2.08-1.04-2.78-2.51c-1.24-2.61-1.15-4.15-2.52-4.36
				c-1.37-0.22-6.17,3.61-8.57-0.38c-2.41-3.99-3.9-7.33-4.77-9.44c-0.87-2.1-2.46-0.84-3.62-0.17c-1.16,0.67-8.9,5.51-11.83,7.72
				c-2.93,2.22-5.48,5.06-6.44,5.54c-0.25,0.12-0.47,0.17-0.69,0.17C19.87,14.49,24.66,13.56,31.18,13.56z"/>
			<linearGradient id="SVGID_7_" gradientUnits="userSpaceOnUse" x1="40.0889" y1="13.5627" x2="40.0889" y2="36.8211">
				<stop  offset="0" style="stop-color:#ED3459"/>
				<stop  offset="0.9925" style="stop-color:#8E4D9D"/>
			</linearGradient>
			<path class="st8" d="M60.15,17.85c-7.91-3.08-22.44-4.29-28.97-4.29c-6.52,0-11.31,0.93-12.26,0.86
				c2.32,0.77-2.13,5.53,6.68,8.88c0.06-0.01,5.3-1.72,15.13-1.18c10.98,0.6,14.91,1.42,14.91,1.42c2.35-1.17,3.94-5.95,5.62-5.22
				C60.94,18.17,60.56,18.03,60.15,17.85z"/>
			<polygon class="st4" points="61.25,18.35 61.25,18.35 61.25,18.35 			"/>
			<linearGradient id="SVGID_8_" gradientUnits="userSpaceOnUse" x1="62.5791" y1="26.6703" x2="49.9627" y2="26.6703">
				<stop  offset="7.932079e-03" style="stop-color:#00B8CA"/>
				<stop  offset="0.6497" style="stop-color:#62C7D2"/>
				<stop  offset="1" style="stop-color:#66C8D2"/>
			</linearGradient>
			<path class="st9" d="M55.63,23.57c-1.71,1.04-4.88,1.6-5.32,2.02c-0.45,0.42-0.39,2.98-0.19,3.3c0.21,0.31,1.15,0.79,1.66,0.87
				c0.51,0.09,3.94-0.53,6.24-1.52c1.95-0.85,3.85-2.17,4.56-3.25C61.81,25.98,60.13,24.5,55.63,23.57z"/>
			<linearGradient id="SVGID_9_" gradientUnits="userSpaceOnUse" x1="59.2897" y1="25.2983" x2="59.2897" y2="18.2484">
				<stop  offset="0" style="stop-color:#00ADEE"/>
				<stop  offset="1" style="stop-color:#9A54A0"/>
			</linearGradient>
			<path class="st10" d="M61.94,18.84c-0.02-0.03-0.04-0.06-0.06-0.08c-0.14-0.17-0.35-0.3-0.61-0.43c0,0,0,0,0,0
				c-1.68-0.73-3.27,4.05-5.62,5.22c4.51,0.93,6.18,2.41,6.95,1.43c0.12-0.19,0.22-0.37,0.26-0.54
				C63.15,23.34,62.62,19.83,61.94,18.84z"/>
		</g>
	</g>
	<linearGradient id="SVGID_10_" gradientUnits="userSpaceOnUse" x1="40.0739" y1="13.5852" x2="40.0739" y2="23.5691">
		<stop  offset="0" style="stop-color:#ED3459"/>
		<stop  offset="0.9925" style="stop-color:#8E4D9D"/>
	</linearGradient>
	<path class="st11" d="M61.25,18.35c-0.32-0.15-0.7-0.3-1.11-0.48c-7.91-3.08-22.44-4.29-28.97-4.29s-11.31,0.93-12.26,0.86
		c2.32,0.77-2.13,5.53,6.68,8.88c0.06-0.01,5.3-1.72,15.13-1.18c10.98,0.6,14.91,1.42,14.91,1.42
		C57.97,22.39,59.56,17.62,61.25,18.35z"/>
</g>
<g>
	<path class="st12" d="M96.53,26.22c-0.72,0.39-1.65,0.59-2.79,0.59c-0.86,0-1.66-0.16-2.39-0.47c-0.74-0.31-1.37-0.74-1.9-1.28
		c-0.53-0.54-0.94-1.17-1.25-1.89c-0.3-0.72-0.45-1.49-0.45-2.31v-0.04c0-0.82,0.15-1.59,0.45-2.32c0.3-0.73,0.72-1.37,1.25-1.91
		c0.53-0.54,1.16-0.97,1.9-1.29c0.74-0.31,1.55-0.47,2.44-0.47c1.09,0,1.99,0.17,2.71,0.52c0.72,0.34,1.34,0.82,1.89,1.42l-2,2.15
		c-0.37-0.39-0.75-0.69-1.15-0.92c-0.39-0.23-0.88-0.34-1.47-0.34c-0.41,0-0.79,0.08-1.13,0.25c-0.34,0.17-0.63,0.39-0.88,0.68
		c-0.25,0.29-0.44,0.62-0.58,1c-0.14,0.38-0.2,0.78-0.2,1.21v0.04c0,0.44,0.07,0.86,0.2,1.24c0.14,0.39,0.33,0.72,0.59,1.01
		c0.26,0.29,0.56,0.51,0.92,0.68s0.76,0.25,1.2,0.25c0.54,0,1.02-0.11,1.43-0.33c0.41-0.22,0.81-0.52,1.21-0.89l1.91,1.93
		C97.88,25.32,97.24,25.82,96.53,26.22z"/>
	<path class="st12" d="M111.98,23.15c-0.31,0.72-0.75,1.36-1.31,1.9c-0.56,0.54-1.22,0.97-1.97,1.29c-0.76,0.31-1.59,0.47-2.49,0.47
		c-0.89,0-1.71-0.15-2.47-0.46c-0.76-0.31-1.41-0.73-1.96-1.27c-0.55-0.54-0.98-1.17-1.3-1.89c-0.31-0.72-0.47-1.5-0.47-2.33v-0.04
		c0-0.83,0.16-1.61,0.47-2.33c0.31-0.72,0.75-1.36,1.31-1.9c0.56-0.54,1.22-0.97,1.97-1.29c0.76-0.31,1.59-0.47,2.49-0.47
		c0.89,0,1.71,0.15,2.47,0.46c0.76,0.31,1.41,0.73,1.96,1.27s0.98,1.17,1.3,1.89s0.47,1.5,0.47,2.33v0.04
		C112.45,21.65,112.3,22.43,111.98,23.15z M109.23,20.82c0-0.43-0.07-0.83-0.21-1.21c-0.14-0.38-0.35-0.72-0.62-1.01
		c-0.27-0.29-0.59-0.53-0.97-0.7c-0.37-0.17-0.78-0.26-1.22-0.26c-0.47,0-0.89,0.08-1.26,0.25c-0.36,0.17-0.68,0.39-0.93,0.68
		c-0.26,0.29-0.46,0.62-0.59,1c-0.14,0.38-0.2,0.78-0.2,1.21v0.04c0,0.43,0.07,0.83,0.21,1.21c0.14,0.38,0.35,0.72,0.62,1.01
		s0.59,0.53,0.95,0.7c0.36,0.17,0.78,0.26,1.23,0.26c0.47,0,0.89-0.08,1.26-0.25c0.37-0.16,0.68-0.39,0.93-0.68
		c0.26-0.29,0.45-0.62,0.59-1c0.14-0.38,0.2-0.78,0.2-1.21V20.82z"/>
	<path class="st12" d="M114.96,26.55V10.88h3.26v15.67H114.96z"/>
	<path class="st12" d="M132.71,23.15c-0.31,0.72-0.75,1.36-1.31,1.9c-0.56,0.54-1.22,0.97-1.97,1.29c-0.76,0.31-1.59,0.47-2.49,0.47
		c-0.89,0-1.71-0.15-2.47-0.46c-0.76-0.31-1.41-0.73-1.96-1.27c-0.55-0.54-0.98-1.17-1.3-1.89c-0.31-0.72-0.47-1.5-0.47-2.33v-0.04
		c0-0.83,0.16-1.61,0.47-2.33c0.31-0.72,0.75-1.36,1.31-1.9c0.56-0.54,1.22-0.97,1.97-1.29c0.76-0.31,1.59-0.47,2.49-0.47
		c0.89,0,1.71,0.15,2.47,0.46c0.76,0.31,1.41,0.73,1.96,1.27c0.55,0.54,0.98,1.17,1.3,1.89c0.31,0.72,0.47,1.5,0.47,2.33v0.04
		C133.19,21.65,133.03,22.43,132.71,23.15z M129.97,20.82c0-0.43-0.07-0.83-0.21-1.21c-0.14-0.38-0.35-0.72-0.62-1.01
		c-0.27-0.29-0.59-0.53-0.97-0.7c-0.37-0.17-0.78-0.26-1.22-0.26c-0.47,0-0.89,0.08-1.26,0.25c-0.36,0.17-0.68,0.39-0.93,0.68
		c-0.26,0.29-0.46,0.62-0.59,1c-0.14,0.38-0.2,0.78-0.2,1.21v0.04c0,0.43,0.07,0.83,0.21,1.21c0.14,0.38,0.35,0.72,0.62,1.01
		s0.59,0.53,0.95,0.7c0.36,0.17,0.78,0.26,1.23,0.26c0.47,0,0.89-0.08,1.26-0.25c0.37-0.16,0.68-0.39,0.93-0.68
		c0.26-0.29,0.45-0.62,0.59-1c0.14-0.38,0.2-0.78,0.2-1.21V20.82z"/>
	<path class="st12" d="M142.31,18.24c-1.09,0-1.94,0.33-2.56,0.99c-0.62,0.66-0.93,1.68-0.93,3.07v4.25h-3.26v-11.5h3.26v2.32
		c0.33-0.79,0.78-1.42,1.35-1.89c0.57-0.47,1.34-0.69,2.32-0.64v3.41H142.31z"/>
	<path class="st12" d="M152.74,26.22c-0.72,0.39-1.65,0.59-2.79,0.59c-0.86,0-1.66-0.16-2.39-0.47c-0.74-0.31-1.37-0.74-1.9-1.28
		c-0.53-0.54-0.94-1.17-1.25-1.89c-0.3-0.72-0.45-1.49-0.45-2.31v-0.04c0-0.82,0.15-1.59,0.45-2.32c0.3-0.73,0.72-1.37,1.25-1.91
		c0.53-0.54,1.16-0.97,1.9-1.29c0.74-0.31,1.55-0.47,2.44-0.47c1.09,0,1.99,0.17,2.71,0.52c0.72,0.34,1.34,0.82,1.89,1.42l-2,2.15
		c-0.37-0.39-0.75-0.69-1.15-0.92c-0.39-0.23-0.88-0.34-1.47-0.34c-0.41,0-0.79,0.08-1.13,0.25c-0.34,0.17-0.63,0.39-0.88,0.68
		c-0.25,0.29-0.44,0.62-0.58,1c-0.14,0.38-0.2,0.78-0.2,1.21v0.04c0,0.44,0.07,0.86,0.2,1.24c0.14,0.39,0.33,0.72,0.59,1.01
		c0.26,0.29,0.56,0.51,0.92,0.68s0.76,0.25,1.2,0.25c0.54,0,1.02-0.11,1.43-0.33c0.41-0.22,0.81-0.52,1.21-0.89l1.91,1.93
		C154.09,25.32,153.45,25.82,152.74,26.22z"/>
	<path class="st12" d="M168.19,23.15c-0.31,0.72-0.75,1.36-1.31,1.9c-0.56,0.54-1.22,0.97-1.97,1.29c-0.76,0.31-1.59,0.47-2.49,0.47
		c-0.89,0-1.71-0.15-2.47-0.46c-0.76-0.31-1.41-0.73-1.96-1.27c-0.55-0.54-0.98-1.17-1.3-1.89c-0.31-0.72-0.47-1.5-0.47-2.33v-0.04
		c0-0.83,0.16-1.61,0.47-2.33c0.31-0.72,0.75-1.36,1.31-1.9c0.56-0.54,1.22-0.97,1.97-1.29c0.76-0.31,1.59-0.47,2.49-0.47
		c0.89,0,1.71,0.15,2.47,0.46c0.76,0.31,1.41,0.73,1.96,1.27c0.55,0.54,0.98,1.17,1.3,1.89c0.31,0.72,0.47,1.5,0.47,2.33v0.04
		C168.67,21.65,168.51,22.43,168.19,23.15z M165.45,20.82c0-0.43-0.07-0.83-0.21-1.21c-0.14-0.38-0.35-0.72-0.62-1.01
		c-0.27-0.29-0.59-0.53-0.97-0.7c-0.37-0.17-0.78-0.26-1.22-0.26c-0.47,0-0.89,0.08-1.26,0.25c-0.36,0.17-0.68,0.39-0.93,0.68
		c-0.26,0.29-0.46,0.62-0.59,1c-0.14,0.38-0.2,0.78-0.2,1.21v0.04c0,0.43,0.07,0.83,0.21,1.21c0.14,0.38,0.35,0.72,0.62,1.01
		s0.59,0.53,0.95,0.7c0.36,0.17,0.78,0.26,1.23,0.26c0.47,0,0.89-0.08,1.26-0.25c0.37-0.16,0.68-0.39,0.93-0.68
		c0.26-0.29,0.45-0.62,0.59-1c0.14-0.38,0.2-0.78,0.2-1.21V20.82z"/>
	<path class="st12" d="M177.49,26.64h-2.96L170,15.04h3.46l2.58,7.71l2.6-7.71h3.39L177.49,26.64z"/>
	<path class="st12" d="M194.63,21.53c-0.01,0.11-0.02,0.25-0.03,0.41h-8.01c0.16,0.74,0.48,1.31,0.98,1.68
		c0.49,0.38,1.11,0.57,1.84,0.57c0.54,0,1.03-0.09,1.46-0.28c0.43-0.19,0.87-0.49,1.33-0.9l1.87,1.65c-0.54,0.67-1.2,1.2-1.97,1.58
		c-0.77,0.38-1.68,0.57-2.73,0.57c-0.86,0-1.66-0.14-2.39-0.43c-0.74-0.29-1.37-0.69-1.91-1.22c-0.54-0.53-0.95-1.15-1.26-1.88
		c-0.3-0.72-0.45-1.53-0.45-2.42v-0.04c0-0.82,0.14-1.59,0.42-2.32c0.28-0.73,0.67-1.37,1.17-1.91c0.5-0.54,1.1-0.97,1.79-1.29
		c0.69-0.31,1.46-0.47,2.31-0.47c0.96,0,1.79,0.17,2.49,0.52c0.7,0.34,1.28,0.81,1.75,1.39c0.47,0.58,0.81,1.24,1.03,2
		c0.22,0.75,0.33,1.53,0.33,2.35v0.04C194.64,21.28,194.63,21.41,194.63,21.53z M190.69,18.12c-0.41-0.45-0.96-0.68-1.65-0.68
		c-0.69,0-1.24,0.22-1.66,0.67c-0.42,0.44-0.7,1.04-0.83,1.78h4.92C191.36,19.17,191.1,18.58,190.69,18.12z"/>
</g>
</svg>
